<svg id="Layer_1" data-name="Layer 1" xmlns="http://www.w3.org/2000/svg" viewBox="0 0 1500 500"><defs><style>.cls-1{fill:#b2810b;}.cls-2{fill:#fff;}.cls-3,.cls-4,.cls-5{fill:#85cab8;}.cls-4,.cls-5{stroke:#fff;stroke-width:6px;}.cls-4{stroke-linecap:round;stroke-linejoin:round;}.cls-5{stroke-miterlimit:10;}</style></defs><title>GT-Color-Full-Logo</title><path class="cls-1" d="M196.73,245.19c-2.23,0-4.46-.09-6.62-.27a87.64,87.64,0,0,1-20.63-4.23,93.89,93.89,0,0,1-17.23-7.87,98.35,98.35,0,0,1-24.88-21c-1.62-1.89-3.15-3.85-4.69-6s-2.86-4.1-4.39-6.6l-1.68-3-1.67-3.14-.21-.43c-1-1.95-2-4-2.76-6A102.37,102.37,0,0,1,104.49,138a104.07,104.07,0,0,1,12.67-41,112.2,112.2,0,0,1,22.42-28.19,130.16,130.16,0,0,1,22.06-16.31l.34-.19c3.21-1.83,6-3.41,8.68-4.66,2.14-1.06,4.68-2.29,6.81-3.13l5.63-2.25a3.13,3.13,0,0,1,1.12-.21,3,3,0,0,1,2.4,4.79l-3.39,4.56c-2.21,2.87-5.09,7-8.84,12.56A156.66,156.66,0,0,0,163.62,83.4a117.87,117.87,0,0,0-4.65,12,111.39,111.39,0,0,0-3.2,13.14,89.72,89.72,0,0,0-1.15,14,92.39,92.39,0,0,0,.59,9.55,63.6,63.6,0,0,1,6.16-14A62.84,62.84,0,0,1,170,106.77,61.68,61.68,0,0,1,179.25,99a57.43,57.43,0,0,1,8.32-4.72,29.24,29.24,0,0,1,4.73-1.82c.39-.13.74-.23,1-.35l.11,0c1.37-.43,2.18-.63,2.26-.65a3.25,3.25,0,0,1,.69-.08,3,3,0,0,1,3,3.35c0,.09-.11.86-.38,2.15-.14.59-.58,2.48-1,4.9-.82,4.54-1.73,9.85-2.2,15.67a.49.49,0,0,1,0,.12c-.25,2.11-.32,4.36-.39,6.75,0,.86,0,1.73-.08,2.6v.27c0,3.13,0,6.36.31,9.53.34,3.82.72,7,1.21,9.85.58,3.18,1.33,6.39,2.22,9.52a86,86,0,0,0,3.28,9.1,91.21,91.21,0,0,0,4.21,8.55l.11.21c1,1.79,2.12,3.55,3.22,5.24l.9-.6.55-.39c.91-.66,1.86-1.33,2.67-2a64,64,0,0,0,10.76-10.32c5.53-7,7.86-13.53,7.56-21.11a41,41,0,0,0-2.8-12.6,64.82,64.82,0,0,0-3-6.73l-.52-1-.07-.14-1.45-2.43c-.22-.36-.43-.72-.64-1.08-.45-.77-.92-1.57-1.47-2.43-1.66-2.64-3.37-5.25-5.18-8-5.27-8.07-10.72-16.4-14.77-25.31-5.94-12.5-8.43-25.44-7-36.41a53.31,53.31,0,0,1,4-14.94,58.3,58.3,0,0,1,6.14-11.12A76.23,76.23,0,0,1,216.58,10l.43-.41.15-.13,4.53-3.74a3,3,0,0,1,3.6-.17,3,3,0,0,1,1.17,3.41l-1.66,5.12-.29,1a82.67,82.67,0,0,0-2.76,12.72c0,.53-.09,1.07-.15,1.61a22.15,22.15,0,0,0-.18,2.76v.16l-.07,2.36.11,2.43a43.29,43.29,0,0,0,1.87,9.79,45.87,45.87,0,0,0,4.86,10,83.63,83.63,0,0,0,8.28,10.35c3,3.23,6.62,6.6,10.45,10.16l1.2,1.12c1.41,1.3,2.89,2.62,4.41,4,3.25,2.92,6.61,5.93,10.13,9.4,1.31,1.27,2.75,2.73,4.13,4.2l2.44,2.59a.86.86,0,0,1,.13.14,3.3,3.3,0,0,1,.27.33l1.08,1.24a99.28,99.28,0,0,1,7.9,10.22,85.2,85.2,0,0,1,6.8,11.87,74.84,74.84,0,0,1,5,13.53,71.46,71.46,0,0,1,1.43,30.59A81,81,0,0,1,280.16,196a108.22,108.22,0,0,1-20.41,23.31c-1.84,1.64-3.67,3.11-5.87,4.85l-3.31,2.49L248,228.51a95.92,95.92,0,0,1-16.1,9.18,89,89,0,0,1-19.84,6.13,86.69,86.69,0,0,1-15.33,1.37Z"/><path class="cls-2" d="M223.6,8s-.58,1.8-1.68,5.18a92.08,92.08,0,0,0-3.15,14.34c-.11,1.52-.38,3.08-.35,4.73,0,.8,0,1.63-.07,2.47s.08,1.68.12,2.55a45.33,45.33,0,0,0,2,10.56,48,48,0,0,0,5.19,10.67,86.54,86.54,0,0,0,8.6,10.77c3.41,3.66,7.47,7.39,11.81,11.44s9.34,8.27,14.48,13.34c1.25,1.21,2.66,2.64,4.05,4.11l1.79,1.9.44.46.22.23s0,0,0,0h0l.22.28.13.15,1,1.15a95.54,95.54,0,0,1,7.68,9.94,81.81,81.81,0,0,1,6.57,11.45,72.14,72.14,0,0,1,4.8,13,68.62,68.62,0,0,1,1.37,29.33,77.7,77.7,0,0,1-11.23,28.29,105.39,105.39,0,0,1-19.83,22.66c-1.89,1.67-3.75,3.16-5.78,4.77l-3.25,2.44-2.5,1.78a92.4,92.4,0,0,1-15.56,8.87,85.18,85.18,0,0,1-19.17,5.93,83.84,83.84,0,0,1-14.81,1.33c-2.14,0-4.27-.08-6.38-.26a85.3,85.3,0,0,1-19.92-4.08,90.88,90.88,0,0,1-16.66-7.62,95.58,95.58,0,0,1-24.12-20.35c-1.61-1.88-3.11-3.81-4.54-5.79s-2.74-3.91-4.26-6.41l-1.62-2.89-1.64-3.08c-1-2.05-2-4.08-2.83-6.13a99.61,99.61,0,0,1-7.28-47.36,100.72,100.72,0,0,1,12.3-39.82A109.78,109.78,0,0,1,141.59,71,128.15,128.15,0,0,1,163.17,55c3.25-1.85,6.08-3.47,8.75-4.71s4.81-2.33,6.64-3.06L184.22,45l-3.4,4.56c-2.28,3-5.26,7.22-8.92,12.68a159.91,159.91,0,0,0-11,19.93,124.9,124.9,0,0,0-4.77,12.3,112.82,112.82,0,0,0-3.3,13.56,93.42,93.42,0,0,0-1.19,14.5,88.51,88.51,0,0,0,1.38,15,82.17,82.17,0,0,0,2.74,10.94A58.53,58.53,0,0,1,158,133.12a57.74,57.74,0,0,1,14.13-24.24,57.78,57.78,0,0,1,8.79-7.43A54.18,54.18,0,0,1,188.86,97a38.25,38.25,0,0,1,5.5-2c1.3-.41,2-.59,2-.59s-.08.68-.34,1.87-.67,3-1,5c-.74,4.07-1.74,9.76-2.24,15.94-.36,3.06-.36,6.37-.49,9.66s0,6.7.32,10.09.68,6.77,1.24,10.11,1.38,6.62,2.3,9.84a86.59,86.59,0,0,0,3.39,9.42,94.42,94.42,0,0,0,4.45,9c1.56,2.72,3.24,5.4,5.05,8l3.38-2.27c1.09-.78,2.36-1.66,3.43-2.52a67.08,67.08,0,0,0,11.22-10.78c5.85-7.43,8.56-14.55,8.21-23.11a44,44,0,0,0-3-13.54,73.56,73.56,0,0,0-3.16-7.05l-.44-.88-.06-.11.14.17-.07-.11h0l-.16-.27-.32-.53L227,120.25c-.67-1.13-1.31-2.28-2.16-3.6-6.42-10.23-14.42-21.23-19.74-32.94-5.52-11.62-8.14-24.17-6.76-34.78a50.49,50.49,0,0,1,3.75-14.17A54.74,54.74,0,0,1,208,24.16a74.92,74.92,0,0,1,11.07-12.42L223.6,8m0-6a6,6,0,0,0-3.82,1.38l-4.53,3.74-.3.26-.43.41a79,79,0,0,0-11.46,13l-.05.07a61.08,61.08,0,0,0-6.44,11.68,56.37,56.37,0,0,0-4.14,15.73c-1.49,11.5,1.09,25,7.27,38,4.14,9.11,9.65,17.53,15,25.67,1.81,2.76,3.51,5.36,5.12,7.94l.05.07c.52.8.95,1.54,1.41,2.33l.64,1.09,1.24,2.07.14.22a.59.59,0,0,0,0,.08l.05.11.44.89,0,.08a63.74,63.74,0,0,1,2.9,6.45,38,38,0,0,1,2.59,11.64c.28,6.89-1.79,12.61-6.92,19.12a60.73,60.73,0,0,1-10.2,9.78l-.09.07c-.41.33-.88.68-1.37,1-.5-.81-1-1.64-1.48-2.48l-.07-.13a88.28,88.28,0,0,1-4.06-8.25,81.85,81.85,0,0,1-3.18-8.8c-.86-3-1.59-6.13-2.16-9.24-.47-2.81-.84-5.86-1.17-9.59-.25-3-.27-6.07-.3-9.29v-.18c0-.86.06-1.72.08-2.57.07-2.31.13-4.5.37-6.47a1.94,1.94,0,0,0,0-.24c.46-5.68,1.36-10.9,2.16-15.35v-.06c.4-2.32.82-4.13.94-4.63l0-.15c.3-1.39.41-2.26.43-2.42a6,6,0,0,0-6-6.7,6.33,6.33,0,0,0-1.37.16c-.17,0-1,.25-2.48.71l-.23.07c-.27.1-.58.19-.92.3a33.19,33.19,0,0,0-5.12,2,59.94,59.94,0,0,0-8.67,4.91l-.08.05a64.18,64.18,0,0,0-9.68,8.18,66,66,0,0,0-9,11.68l-.08.13c-.36.62-.71,1.24-1,1.86.15-2.83.49-5.9,1-9.38a107.32,107.32,0,0,1,3.1-12.73,116.56,116.56,0,0,1,4.52-11.63,154.12,154.12,0,0,1,10.56-19.09c3.69-5.51,6.53-9.54,8.66-12.32l0-.07,3.4-4.55a6,6,0,0,0-7-9.16l-5.65,2.25c-2.18.86-4.76,2.11-7,3.22-2.8,1.3-5.59,2.89-8.83,4.74l-.3.17-.09,0a133.22,133.22,0,0,0-22.58,16.7,114.73,114.73,0,0,0-23,28.91,107.14,107.14,0,0,0-13,42.22,105.33,105.33,0,0,0,7.7,50.14c.84,2.15,1.86,4.21,2.85,6.2l.16.34a1.09,1.09,0,0,0,.08.15l1.64,3.09.06.12,1.62,2.89.12.19c1.57,2.59,3,4.69,4.54,6.83s3.15,4.18,4.81,6.13a101.14,101.14,0,0,0,25.63,21.62,97,97,0,0,0,17.79,8.14,90.4,90.4,0,0,0,21.36,4.38c2.25.19,4.56.28,6.87.28a90.13,90.13,0,0,0,15.87-1.42,91.91,91.91,0,0,0,20.52-6.34,99.48,99.48,0,0,0,16.51-9.4l.11-.08,2.5-1.77.14-.1,3.25-2.45.12-.09c2.22-1.76,4.07-3.25,6-5a111,111,0,0,0,20.93-23.92,84,84,0,0,0,12.09-30.51,74.62,74.62,0,0,0-1.49-31.92,77.45,77.45,0,0,0-5.17-14,87.52,87.52,0,0,0-7-12.25A102.64,102.64,0,0,0,273,98.42l-1-1.13,0,0c-.09-.11-.2-.25-.33-.39s-.13-.15-.2-.23l-.22-.23-.45-.47L269,94c-1.4-1.49-2.86-3-4.22-4.29-3.56-3.51-6.94-6.54-10.21-9.47-1.54-1.39-3-2.69-4.39-4L249,75.19c-3.78-3.52-7.35-6.85-10.3-10a80.74,80.74,0,0,1-8-9.94A42.5,42.5,0,0,1,226.17,46a40.16,40.16,0,0,1-1.71-9.07l-.08-1.57,0-.66.07-2.24V32.1a19.38,19.38,0,0,1,.17-2.37c0-.52.11-1.06.15-1.63a78.6,78.6,0,0,1,2.66-12.2l.27-1,1.64-5.07A6,6,0,0,0,223.6,2Zm0,12h0Z"/><path class="cls-3" d="M198.28,492a19.22,19.22,0,0,1-14.15-5.9c-15.24-15.38-14.82-59-14.32-109.4.08-8.82.17-17.94.17-27,0-34.61-13.26-54.55-26.08-73.84-11.64-17.5-23.68-35.6-25.34-63.92a3,3,0,0,1,3-3.18H275a3,3,0,0,1,3,3.18c-1.67,28.32-13.7,46.42-25.34,63.92-12.83,19.29-26.09,39.23-26.09,73.84,0,9,.09,18.16.18,27,.49,50.45.92,94-14.32,109.4A19.24,19.24,0,0,1,198.28,492Z"/><path class="cls-2" d="M275,211.78h0m0,0c-3.45,58.41-51.44,70.8-51.44,137.94,0,69.64,5.25,139.28-25.3,139.28S173,419.36,173,349.72c0-67.14-48-79.53-51.43-137.94H275m0-6H121.55a6,6,0,0,0-6,6.35c1.72,29.14,14,47.58,25.84,65.41C154.56,297.33,167,316,167,349.72c0,9-.09,18.14-.17,26.95-.5,51.12-.94,95.27,15.18,111.54a22.94,22.94,0,0,0,32.58,0c16.12-16.27,15.69-60.42,15.19-111.54-.09-8.81-.18-17.93-.18-26.95,0-33.7,12.43-52.39,25.59-72.18C267,259.75,279.23,241.35,281,212.32a4.89,4.89,0,0,0,0-.54,6,6,0,0,0-6-6Zm0,12Z"/><path class="cls-4" d="M142,244.94H251.74c31.07,0,56.26-22.09,56.26-49.33H85.75C85.75,222.85,110.94,244.94,142,244.94Z"/><path class="cls-5" d="M220.93,380.47H175.64c-11.91,0-21.57-19.74-21.57-19.74h0S163.73,341,175.64,341h45.29c11.91,0,21.57,19.73,21.57,19.73S232.84,380.47,220.93,380.47Z"/><path class="cls-1" d="M495.52,133.69h34.93v79.23c-20.73,16.76-49.7,25.28-77.81,25.28C391,238.2,345.57,195.31,345.57,136S391,33.72,453.21,33.72c33.22,0,61.06,11.08,79.8,32.38L509.72,88.82C494.1,73.2,476.21,66.1,454.91,66.1c-42.31,0-72.13,28.68-72.13,69.86,0,40.33,29.82,69.86,71.85,69.86,14.2,0,28.11-2.84,40.89-10.22Z"/><path class="cls-1" d="M563.11,159.53c0-45.44,34.08-77.53,80.66-77.53,47.14,0,80.94,32.09,80.94,77.53s-33.8,77.82-80.94,77.82C597.19,237.35,563.11,205,563.11,159.53Zm125.81,0c0-29-19.31-47.43-45.15-47.43-25.56,0-44.87,18.46-44.87,47.43S618.21,207,643.77,207C669.61,207,688.92,188.5,688.92,159.53Z"/><path class="cls-1" d="M758.79,187.93V24.63h35.5V185.37c0,14.77,7.09,22.72,21.29,22.72a31.5,31.5,0,0,0,12.78-2.84l1.71,28.4a61.1,61.1,0,0,1-21.3,3.7C777.25,237.35,758.79,219.45,758.79,187.93Z"/><path class="cls-1" d="M999.9,24.63V235.36H965.82v-19.6c-11.93,14.49-29.53,21.59-50.27,21.59-44,0-76.68-30.68-76.68-77.82S871.53,82,915.55,82c19.6,0,36.92,6.53,48.85,20.45V24.63ZM965,159.53c0-29-19.6-47.43-45.16-47.43s-45.15,18.46-45.15,47.43S894.25,207,919.81,207,965,188.5,965,159.53Z"/><path class="cls-1" d="M1159.79,190.77l18.75,21.87c-13.35,16.19-34.65,24.71-60.78,24.71-50.84,0-83.78-32.66-83.78-77.82S1066.92,82,1112.08,82c42.32,0,76.4,28.4,76.68,75.83L1072.6,180.55c7.39,17.32,23.86,26.69,46,26.69C1135.65,207.24,1148.72,201.85,1159.79,190.77Zm-91.45-33.23v.29l85.77-16.48c-4.83-18.45-20.73-30.95-42-30.95C1086.24,110.4,1068.34,128.58,1068.34,157.54Z"/><path class="cls-1" d="M1372.22,148.46v86.9h-35.5V153c0-27-13.35-40-36.07-40-25.27,0-42.31,15.33-42.31,45.72v76.68h-35.5V83.7h33.79v19.6c11.65-13.92,30.11-21.3,52.26-21.3C1345.24,82,1372.22,102.73,1372.22,148.46Z"/><path class="cls-3" d="M523.79,324a150,150,0,0,0-58.5-19.32v168.7H428.37V304.66A151.29,151.29,0,0,0,369.58,324l-12.78-28.4c27-16.19,58.22-23.86,89.75-23.86s63,7.67,90,23.86Z"/><path class="cls-3" d="M529.48,397.53c0-45.44,34.08-77.53,80.65-77.53,47.14,0,80.94,32.09,80.94,77.53s-33.8,77.82-80.94,77.82C563.56,475.35,529.48,443,529.48,397.53Zm125.81,0c0-29-19.32-47.43-45.16-47.43-25.56,0-44.87,18.46-44.87,47.43S584.57,445,610.13,445C636,445,655.29,426.5,655.29,397.53Z"/><path class="cls-3" d="M815.17,320v33.79a45.63,45.63,0,0,0-8.23-.85c-27,0-44,15.91-44,46.86v73.56h-35.5V321.7h33.8v22.16C771.44,328,789.9,320,815.17,320Z"/><path class="cls-3" d="M833.64,397.53c0-45.44,34.08-77.53,82.07-77.53,29.54,0,53.11,12.21,64.75,35.21L953.2,371.12c-9.09-14.49-22.72-21-37.77-21-26.13,0-46,18.18-46,47.43,0,29.54,19.88,47.43,46,47.43,15.05,0,28.68-6.53,37.77-21l27.26,15.91c-11.64,22.72-35.21,35.5-64.75,35.5C867.72,475.35,833.64,443,833.64,397.53Z"/><path class="cls-3" d="M1161.37,386.45v86.91h-35.5V391c0-27-13.34-40-36.06-40-25.28,0-42.32,15.33-42.32,45.72v76.68H1012V262.63h35.5v76.68C1059.13,326.82,1077,320,1098,320,1134.39,320,1161.37,340.73,1161.37,386.45Z"/></svg>